<svg xmlns="http://www.w3.org/2000/svg" width="17.785" height="18.7"><g data-name="Group 177" fill="#fff"><path data-name="Path 247" d="M17.301 8.767L9.024.489a1.669 1.669 0 0 0-2.361 0L2.13 5.021a1.7 1.7 0 0 0 0 2.382l.751.772h1.733L2.996 6.537a.464.464 0 0 1-.13-.325.452.452 0 0 1 .13-.319l.6-.58L6.44 8.175h2.729l-4.21-4.229 2.57-2.58a.452.452 0 0 1 .314-.135.438.438 0 0 1 .314.127l8.277 8.277a.441.441 0 0 1 .131.314.468.468 0 0 1-.143.314l-.469.458v1.733l1.337-1.324a1.671 1.671 0 0 0 .011-2.363z"/><path data-name="Path 248" d="M13.418 8.951H1.709a1.7 1.7 0 0 0-1.711 1.665v4.428h15.069v-4.428a1.648 1.648 0 0 0-1.649-1.665zm-9.327 4.585a1.21 1.21 0 0 1-.841-.34 1.215 1.215 0 1 1 0-1.751 1.215 1.215 0 1 1 .841 2.091z"/><path data-name="Path 249" d="M0 17.026a1.709 1.709 0 0 0 1.709 1.67h11.709a1.657 1.657 0 0 0 1.649-1.675v-.1H0z"/></g></svg>